<?xml version="1.0" standalone="no"?><svg xmlns:xlink="http://www.w3.org/1999/xlink" xmlns="http://www.w3.org/2000/svg" viewBox="0 0 1000 545.4545454545455" preserveAspectRatio="xMaxYMax slice"><g transform="scale(1.4781966001478197)"><rect x="0" y="0" width="676.5" height="369" fill="#ffffff"/><rect x="0" y="0" width="61.5" height="61.5" fill="#c2ecff"/><polygon points="0,0 61.5,61.5 0,61.5" fill="#40c2ff"/><rect x="61.5" y="0" width="61.5" height="61.5" fill="#fafef6"/><path d="M 61.5 0 A 61.5 61.5 0 0 0 123 61.5 L 123 0" fill="#f9fdff"/><rect x="123" y="0" width="61.5" height="61.5" fill="#fcfefa"/><path d="M 123 0 A 61.5 61.5 0 0 1  184.5 61.5 L 123 0 A 61.5 61.5 0 0 0 184.5 61.5" fill="#cff5ac"/><rect x="184.5" y="0" width="61.5" height="61.5" fill="#e0f8ca"/><polygon points="184.5,0 246,0 246,61.5" fill="#c3f296"/><rect x="246" y="0" width="61.5" height="61.5" fill="#c3ecff"/><polygon points="307.5,0 307.5,61.5 246,61.5" fill="#dbf3ff"/><rect x="307.5" y="0" width="61.5" height="61.5" fill="#94ddff"/><rect x="307.5" y="0" width="61.5" height="61.5" fill="#fafdff"/><rect x="369" y="0" width="61.5" height="61.5" fill="#cbf4a5"/><polygon points="430.5,0 430.5,61.5 369,61.5" fill="#d4f6b5"/><rect x="430.5" y="0" width="61.5" height="61.5" fill="#91dcff"/><polygon points="430.5,0 492,0 492,61.5" fill="#aaed6c"/><rect x="492" y="0" width="61.5" height="61.5" fill="#78d4ff"/><rect x="492" y="0" width="61.5" height="61.5" fill="#81e424"/><rect x="553.5" y="0" width="61.5" height="61.5" fill="#61cdff"/><path d="M 553.5 0 A 61.5 61.5 0 0 1  615 61.5 L 553.5 0 A 61.5 61.5 0 0 0 615 61.5" fill="#7ce21c"/><rect x="615" y="0" width="61.5" height="61.5" fill="#ddf7c3"/><rect x="615" y="0" width="61.5" height="61.5" fill="#aeed71"/><rect x="0" y="61.5" width="61.5" height="61.5" fill="#8be635"/><polygon points="0,61.5 61.5,61.5 0,123" fill="#8bdaff"/><rect x="61.5" y="61.5" width="61.5" height="61.5" fill="#aae4ff"/><polygon points="61.5,61.5 123,123 61.5,123" fill="#c5f29a"/><rect x="123" y="61.5" width="61.5" height="61.5" fill="#77d4ff"/><path d="M 123 61.5 A 61.5 61.5 0 0 1 184.5 123 L 123 123" fill="#e4f9d0"/><rect x="184.5" y="61.5" width="61.5" height="61.5" fill="#b2ee79"/><rect x="184.5" y="61.5" width="61.5" height="61.5" fill="#abe4ff"/><rect x="246" y="61.5" width="61.5" height="61.5" fill="#89daff"/><polygon points="246,61.5 307.5,123 246,123" fill="#85e42b"/><rect x="307.5" y="61.5" width="61.5" height="61.5" fill="#a8e3ff"/><path d="M 307.5 61.5 A 61.5 61.5 0 0 1  369 123 L 307.5 61.5 A 61.5 61.5 0 0 0 369 123" fill="#7ed6ff"/><rect x="369" y="61.5" width="61.5" height="61.5" fill="#b0e6ff"/><path d="M 369 123 A 61.5 61.5 0 0 1  430.5 61.5 L 430.5 123" fill="#a5eb63"/><rect x="430.5" y="61.5" width="61.5" height="61.5" fill="#bdf18d"/><polygon points="430.5,61.5 492,61.5 430.5,123" fill="#75d3ff"/><rect x="492" y="61.5" width="61.5" height="61.5" fill="#9ae950"/><path d="M 492 61.5 A 61.5 61.5 0 0 1  553.5 123 L 492 61.5 A 61.5 61.5 0 0 0 553.5 123" fill="#abe4ff"/><rect x="553.5" y="61.5" width="61.5" height="61.5" fill="#44c3ff"/><path d="M 553.5 61.5 A 61.5 61.5 0 0 1  615 123 L 553.5 61.5 A 61.5 61.5 0 0 0 615 123" fill="#bcf08a"/><rect x="615" y="61.5" width="61.5" height="61.5" fill="#cef4aa"/><rect x="615" y="61.5" width="61.5" height="61.5" fill="#baf088"/><rect x="0" y="123" width="61.5" height="61.5" fill="#bcf08a"/><path d="M 0 123 A 61.5 61.5 0 0 0 61.5 184.5 L 61.5 123" fill="#d7f6ba"/><rect x="61.5" y="123" width="61.5" height="61.5" fill="#8bdaff"/><rect x="61.5" y="123" width="61.5" height="61.5" fill="#c3ecff"/><rect x="123" y="123" width="61.5" height="61.5" fill="#7ce21c"/><path d="M 123 184.5 A 61.5 61.5 0 0 0 184.5 123 L 123 123" fill="#d3f1ff"/><rect x="184.5" y="123" width="61.5" height="61.5" fill="#cff0ff"/><path d="M 184.5 184.5 A 61.5 61.5 0 0 1  246 123 L 184.5 184.5 A 61.5 61.5 0 0 0 246 123" fill="#c3f297"/><rect x="246" y="123" width="61.5" height="61.5" fill="#abe4ff"/><rect x="246" y="123" width="61.5" height="61.5" fill="#90e73e"/><rect x="307.5" y="123" width="61.5" height="61.5" fill="#76d3ff"/><polygon points="369,123 369,184.5 307.5,184.5" fill="#cdefff"/><rect x="369" y="123" width="61.5" height="61.5" fill="#b7e8ff"/><polygon points="369,123 430.5,184.5 369,184.5" fill="#39c0ff"/><rect x="430.5" y="123" width="61.5" height="61.5" fill="#62cdff"/><rect x="430.5" y="123" width="61.5" height="61.5" fill="#42c3ff"/><rect x="492" y="123" width="61.5" height="61.5" fill="#fafdff"/><path d="M 492 123 A 61.5 61.5 0 0 1 553.5 184.5 L 492 184.5" fill="#fffffe"/><rect x="553.5" y="123" width="61.5" height="61.5" fill="#eefbe2"/><path d="M 553.5 123 A 61.5 61.5 0 0 1 615 184.5 L 553.5 184.5" fill="#c5edff"/><rect x="615" y="123" width="61.5" height="61.5" fill="#7fd6ff"/><polygon points="676.5,123 676.5,184.5 615,184.5" fill="#bfebff"/><rect x="0" y="184.5" width="61.5" height="61.5" fill="#83e428"/><path d="M 0 246 A 61.5 61.5 0 0 1  61.5 184.5 L 61.5 246" fill="#9adfff"/><rect x="61.5" y="184.5" width="61.5" height="61.5" fill="#99dfff"/><polygon points="61.5,184.5 123,184.5 61.5,246" fill="#5acbff"/><rect x="123" y="184.5" width="61.5" height="61.5" fill="#b0ee76"/><path d="M 123 246 A 61.5 61.5 0 0 1  184.5 184.5 L 184.5 246" fill="#beeaff"/><rect x="184.5" y="184.5" width="61.5" height="61.5" fill="#dbf7c1"/><rect x="184.5" y="184.5" width="61.5" height="61.5" fill="#bdeaff"/><rect x="246" y="184.5" width="61.5" height="61.5" fill="#83e428"/><rect x="246" y="184.5" width="61.5" height="61.5" fill="#8cdaff"/><rect x="307.5" y="184.5" width="61.5" height="61.5" fill="#ebfbdd"/><path d="M 307.5 184.5 A 61.5 61.5 0 0 1  369 246 L 307.5 184.5 A 61.5 61.5 0 0 0 369 246" fill="#83e427"/><rect x="369" y="184.5" width="61.5" height="61.5" fill="#d3f5b2"/><polygon points="369,184.5 430.5,184.5 369,246" fill="#d7f6ba"/><rect x="430.5" y="184.5" width="61.5" height="61.5" fill="#aaec6b"/><polygon points="430.5,184.5 492,184.5 430.5,246" fill="#7dd6ff"/><rect x="492" y="184.5" width="61.5" height="61.5" fill="#a1eb5c"/><path d="M 492 184.5 A 61.5 61.5 0 0 0 553.5 246 L 553.5 184.5" fill="#4bc6ff"/><rect x="553.5" y="184.5" width="61.5" height="61.5" fill="#3fc2ff"/><polygon points="553.5,184.5 615,246 553.5,246" fill="#b7e8ff"/><rect x="615" y="184.5" width="61.5" height="61.5" fill="#41c2ff"/><polygon points="676.5,184.5 676.5,246 615,246" fill="#7de31d"/><rect x="0" y="246" width="61.5" height="61.5" fill="#ddf7c3"/><polygon points="0,246 61.5,246 61.5,307.5" fill="#c8eeff"/><rect x="61.5" y="246" width="61.5" height="61.5" fill="#aded71"/><rect x="61.5" y="246" width="61.5" height="61.5" fill="#4bc6ff"/><rect x="123" y="246" width="61.5" height="61.5" fill="#c4ecff"/><path d="M 123 307.5 A 61.5 61.5 0 0 1  184.5 246 L 184.5 307.5" fill="#8cdaff"/><rect x="184.5" y="246" width="61.5" height="61.5" fill="#fafef6"/><polygon points="246,246 246,307.5 184.5,307.5" fill="#ecf9ff"/><rect x="246" y="246" width="61.5" height="61.5" fill="#fcfefa"/><polygon points="246,246 307.5,246 246,307.5" fill="#ebf8ff"/><rect x="307.5" y="246" width="61.5" height="61.5" fill="#9bdfff"/><rect x="307.5" y="246" width="61.5" height="61.5" fill="#79d4ff"/><rect x="369" y="246" width="61.5" height="61.5" fill="#bdf18c"/><polygon points="430.5,246 430.5,307.5 369,307.5" fill="#a3eb5f"/><rect x="430.5" y="246" width="61.5" height="61.5" fill="#81d7ff"/><rect x="430.5" y="246" width="61.5" height="61.5" fill="#a0ea5b"/><rect x="492" y="246" width="61.5" height="61.5" fill="#eaf8ff"/><rect x="492" y="246" width="61.5" height="61.5" fill="#e4f6ff"/><rect x="553.5" y="246" width="61.5" height="61.5" fill="#86e52d"/><rect x="553.5" y="246" width="61.5" height="61.5" fill="#66ceff"/><rect x="615" y="246" width="61.5" height="61.5" fill="#fbfef8"/><path d="M 615 246 A 61.5 61.5 0 0 0 676.5 307.5 L 676.5 246" fill="#66ceff"/><rect x="0" y="307.5" width="61.5" height="61.5" fill="#6cd0ff"/><polygon points="0,307.5 61.5,369 0,369" fill="#8ddbff"/><rect x="61.5" y="307.5" width="61.5" height="61.5" fill="#a3eb5f"/><path d="M 61.5 307.5 A 61.5 61.5 0 0 1  123 369 L 61.5 307.5 A 61.5 61.5 0 0 0 123 369" fill="#c5f29b"/><rect x="123" y="307.5" width="61.5" height="61.5" fill="#d2f1ff"/><polygon points="123,307.5 184.5,369 123,369" fill="#e3f9ce"/><rect x="184.5" y="307.5" width="61.5" height="61.5" fill="#5fccff"/><polygon points="246,307.5 246,369 184.5,369" fill="#d7f6ba"/><rect x="246" y="307.5" width="61.5" height="61.5" fill="#71d2ff"/><path d="M 246 307.5 A 61.5 61.5 0 0 0 307.5 369 L 307.5 307.5" fill="#96deff"/><rect x="307.5" y="307.5" width="61.5" height="61.5" fill="#36bfff"/><path d="M 307.5 369 A 61.5 61.5 0 0 1  369 307.5 L 307.5 369 A 61.5 61.5 0 0 0 369 307.5" fill="#5bcbff"/><rect x="369" y="307.5" width="61.5" height="61.5" fill="#62cdff"/><path d="M 369 369 A 61.5 61.5 0 0 1  430.5 307.5 L 430.5 369" fill="#84e429"/><rect x="430.5" y="307.5" width="61.5" height="61.5" fill="#8be635"/><path d="M 430.5 369 A 61.5 61.5 0 0 1  492 307.5 L 492 369" fill="#f1fce6"/><rect x="492" y="307.5" width="61.5" height="61.5" fill="#98deff"/><rect x="492" y="307.5" width="61.5" height="61.5" fill="#a7ec66"/><rect x="553.5" y="307.5" width="61.5" height="61.5" fill="#eaf8ff"/><path d="M 553.5 369 A 61.5 61.5 0 0 1  615 307.5 L 553.5 369 A 61.5 61.5 0 0 0 615 307.5" fill="#93dcff"/><rect x="615" y="307.5" width="61.5" height="61.5" fill="#a5e2ff"/><rect x="615" y="307.5" width="61.5" height="61.5" fill="#85e42b"/></g></svg>